<?xml version="1.0" encoding="UTF-8" standalone="no"?>
<!DOCTYPE svg PUBLIC "-//W3C//DTD SVG 20010904//EN"
              "http://www.w3.org/TR/2001/REC-SVG-20010904/DTD/svg10.dtd">

<svg xmlns="http://www.w3.org/2000/svg"
     width="225.792in" height="225.792in"
     viewBox="0 0 16257 16257">
  <path id="Sans nom"
        fill="none" stroke="black" stroke-width="1"
        d="M 1539.00,14820.00
           C 1539.00,14820.00 1587.00,14502.00 1587.00,14502.00
             1587.00,14502.00 1576.00,14456.50 1572.00,14437.00
             1583.50,14391.50 1615.50,14359.50 1608.00,14357.00
             1612.67,14334.67 1590.67,14239.33 1590.67,14239.33
             1590.67,14239.33 1732.00,13778.00 1821.00,13020.00
             1821.00,13020.00 2657.73,13311.74 3342.00,13549.00
             3447.00,13547.00 3531.08,13599.61 3734.00,13677.00
             3922.56,13748.91 4175.00,13838.00 4209.00,13848.00
             4268.00,13880.00 4281.00,13924.00 4281.00,13924.00
             4281.00,13924.00 4259.00,13962.00 4259.00,13962.00
             4259.00,13962.00 4298.00,13986.00 4298.00,13986.00
             4298.00,13986.00 3971.00,14607.00 3971.00,14607.00
             3971.00,14607.00 3970.01,14616.56 3957.00,14622.00
             3950.25,14624.82 3938.26,14621.33 3929.00,14625.00
             3918.39,14629.21 3919.61,14642.91 3913.00,14649.00
             3904.00,14657.30 3887.27,14658.39 3869.00,14666.00
             3807.86,14691.46 3720.00,14712.00 3720.00,14712.00
             3720.00,14712.00 3688.00,14747.00 3669.00,14793.00
             3648.27,14823.88 3624.50,14862.10 3601.00,14875.00
             3569.90,14892.07 3565.49,14875.73 3543.00,14866.00
             3516.12,14854.37 3474.00,14847.00 3474.00,14847.00
             3474.00,14847.00 3469.89,14848.33 3446.00,14853.00
             3438.32,14854.50 3464.53,14890.92 3455.00,14893.00
             3400.69,14904.88 3397.56,14906.28 3349.00,14896.00
             3331.29,14892.25 3313.74,14902.67 3291.00,14898.00
             3278.92,14895.52 3266.88,14889.91 3254.00,14887.00
             3233.04,14882.27 3196.00,14891.00 3183.00,14900.00
             3151.54,14892.48 3146.46,14904.20 3121.00,14893.00
             3074.56,14872.58 3018.00,14829.00 3018.00,14829.00
             3018.00,14829.00 2998.00,14870.75 2988.00,14909.50
             3000.25,14933.25 3013.50,14949.25 3080.50,14994.25
             3087.23,15000.52 3093.71,15006.40 3099.75,15014.50
             3104.01,15020.22 3108.92,15029.24 3114.00,15034.00
             3115.27,15036.94 3123.62,15039.11 3130.25,15042.00
             3156.75,15056.50 3177.08,15058.36 3191.00,15065.50
             3198.07,15072.03 3202.42,15081.45 3209.00,15088.00
             3230.60,15109.51 3263.43,15124.52 3279.75,15143.75
             3293.60,15160.07 3294.77,15193.70 3302.25,15207.25
             3307.94,15217.56 3314.93,15220.10 3319.50,15224.00
             3326.61,15230.05 3335.50,15248.00 3335.50,15248.00
             3335.50,15248.00 3338.50,15253.50 3344.75,15250.50
             3346.98,15251.49 3342.18,15226.36 3344.75,15227.50
             3346.50,15220.00 3352.15,15213.23 3356.75,15216.50
             3362.49,15220.58 3370.83,15232.68 3377.00,15240.00
             3385.54,15250.13 3402.89,15259.59 3408.50,15267.00
             3413.67,15273.82 3411.93,15280.25 3412.50,15280.25
             3413.69,15280.25 3393.58,15301.72 3375.75,15304.00
             3372.15,15304.46 3364.45,15299.72 3360.75,15299.75
             3336.69,15299.96 3312.00,15315.25 3312.00,15315.25
             3312.00,15315.25 3295.67,15356.24 3279.75,15399.75
             3278.53,15403.08 3282.72,15410.10 3281.50,15413.50
             3279.78,15418.31 3270.35,15428.14 3268.50,15432.75
             3258.77,15457.03 3240.50,15491.25 3240.50,15491.25
             3240.50,15491.25 3211.94,15460.04 3168.25,15430.00
             3130.29,15403.90 3097.25,15383.75 3051.75,15359.75
             3050.36,15358.85 3034.62,15357.89 3033.25,15357.00
             2992.48,15330.46 2918.00,15288.25 2918.00,15288.25
             2918.00,15288.25 2547.00,15159.00 2547.00,15159.00
             2547.00,15159.00 1539.00,14820.00 1539.00,14820.00 Z" />
</svg>
