<?xml version="1.0" encoding="UTF-8" standalone="no"?>
<!DOCTYPE svg PUBLIC "-//W3C//DTD SVG 20010904//EN"
              "http://www.w3.org/TR/2001/REC-SVG-20010904/DTD/svg10.dtd">

<svg xmlns="http://www.w3.org/2000/svg"
     width="225.792in" height="225.792in"
     viewBox="0 0 16257 16257">
  <path id="Sans nom"
        fill="none" stroke="black" stroke-width="1"
        d="M 136.00,11572.00
           C 478.00,11208.00 572.00,10970.50 906.00,10682.50
             920.00,10628.50 1300.00,10544.50 1488.00,10528.50
             1488.00,10528.50 1668.76,10475.93 1866.00,10522.50
             1994.99,10570.56 2089.78,10611.50 2250.00,10672.50
             2410.22,10733.50 2450.00,10698.50 2594.00,10714.50
             2890.00,10776.50 2886.00,10724.50 3608.00,10556.50
             3608.00,10556.50 4470.00,10320.50 4470.00,10320.50
             4470.00,10320.50 4476.00,10842.50 4476.00,10842.50
             4476.00,10842.50 3920.00,10782.50 3920.00,10782.50
             3920.00,10782.50 3902.00,10880.50 3902.00,10880.50
             3902.00,10880.50 4722.00,11058.50 4722.00,11058.50
             4722.00,11058.50 4762.00,11358.00 4762.00,11350.00
             4762.00,11342.00 4792.00,11518.50 4792.00,11510.50
             4792.00,11502.50 5084.00,11438.50 5084.00,11438.50
             5084.00,11438.50 5042.00,12006.50 5042.00,12006.50
             5042.00,12006.50 5019.00,12261.00 5023.50,12447.00
             5019.00,12505.50 4993.50,12573.00 4930.50,12678.00
             4930.50,12678.00 4962.00,12946.50 4927.50,12999.00
             4927.50,12999.00 4518.00,13602.00 4477.50,13651.50
             4456.04,13675.92 4440.00,13714.50 4351.50,13752.00
             4297.60,13790.70 4243.16,13828.42 4212.00,13834.50
             4212.00,13834.50 4287.00,14005.50 4287.00,14005.50
             4287.00,14005.50 4035.00,14473.50 4035.00,14473.50
             4035.00,14473.50 3966.00,14614.50 3966.00,14614.50
             3966.00,14614.50 3849.00,14683.50 3715.50,14719.50
             3664.50,14806.50 3645.00,14836.50 3600.00,14878.50
             3600.00,14878.50 3405.63,14904.61 3246.00,14893.50
             3118.20,14884.61 3018.00,14838.00 3018.00,14838.00
             3018.00,14838.00 2920.50,15310.50 2920.50,15310.50
             2920.50,15310.50 2227.50,15904.50 2227.50,15904.50
             2227.50,15904.50 1912.50,15496.50 1912.50,15496.50
             1912.50,15496.50 1581.00,15481.50 1581.00,15481.50
             1581.00,15481.50 1204.50,15301.50 1204.50,15301.50
             1204.50,15301.50 1100.21,15265.60 1018.50,15223.50
             955.73,15191.15 910.50,15150.00 910.50,15150.00
             910.50,15150.00 881.86,15118.39 816.00,15117.00
             775.17,15116.14 759.54,15180.44 720.00,15207.00
             690.74,15226.65 640.46,15210.31 598.50,15211.50
             413.51,15216.76 140.00,15136.00 140.00,15136.00
             140.00,15136.00 140.00,11894.00 136.00,11572.00 Z" />
</svg>
