<?xml version="1.0" encoding="UTF-8" standalone="no"?>
<!-- Created with Inkscape (http://www.inkscape.org/) -->

<svg
   width="210mm"
   height="297mm"
   viewBox="0 0 210 297"
   version="1.1"
   id="svg1"
   inkscape:export-filename="image.svg"
   inkscape:export-xdpi="96"
   inkscape:export-ydpi="96"
   sodipodi:docname="image.svg"
   inkscape:version="1.3.2 (091e20e, 2023-11-25, custom)"
   xmlns:inkscape="http://www.inkscape.org/namespaces/inkscape"
   xmlns:sodipodi="http://sodipodi.sourceforge.net/DTD/sodipodi-0.dtd"
   xmlns="http://www.w3.org/2000/svg"
   xmlns:svg="http://www.w3.org/2000/svg">
  <sodipodi:namedview
     id="namedview1"
     pagecolor="#ffffff"
     bordercolor="#000000"
     borderopacity="0.25"
     inkscape:showpageshadow="2"
     inkscape:pageopacity="0.0"
     inkscape:pagecheckerboard="0"
     inkscape:deskcolor="#d1d1d1"
     inkscape:document-units="mm"
     inkscape:zoom="0.73139029"
     inkscape:cx="397.18876"
     inkscape:cy="561.25984"
     inkscape:window-width="1920"
     inkscape:window-height="1017"
     inkscape:window-x="-8"
     inkscape:window-y="-8"
     inkscape:window-maximized="1"
     inkscape:current-layer="layer1" />
  <defs
     id="defs1" />
  <g
     inkscape:label="Calque 1"
     inkscape:groupmode="layer"
     id="layer1">
    <path
       id="path5"
       style="fill:none;stroke:#000000;stroke-width:1.32292;stroke-dasharray:none;stroke-opacity:1"
       d="m 127.1445,200.23036 c 0,0 -27.91844,-0.80021 -31.652754,-2.13389 -14.137046,-7.11298 -23.650655,-6.40168 -26.318022,-9.95817 -5.384925,-4.31798 -6.164583,-4.03069 -9.246875,-6.04603 0,0 -4.44561,-9.60252 -9.424696,-12.80336 -4.3567,-1.68933 -10.135997,-35.5649 -10.135997,-35.5649 l 0.35565,-31.83058 4.089964,-15.648557 m 94.54224,100.118887 -12.46099,13.59725 M 44.76376,86.383995 c 0,0 22.130396,5.155374 26.657068,19.238355 2.263336,6.28704 24.645216,5.02964 30.932262,30.80652 0,0 4.65241,21.75318 2.64056,30.80652 2.7663,11.81964 34.32726,18.86114 34.32726,18.86114" />
  </g>
</svg>
