<?xml version="1.0" encoding="UTF-8" standalone="no"?>
<!DOCTYPE svg PUBLIC "-//W3C//DTD SVG 20010904//EN"
              "http://www.w3.org/TR/2001/REC-SVG-20010904/DTD/svg10.dtd">

<svg xmlns="http://www.w3.org/2000/svg"
     width="225.792in" height="225.792in"
     viewBox="0 0 16257 16257">
  <path id="Sans nom"
        fill="none" stroke="black" stroke-width="1"
        d="M 14386.00,4852.00
           C 14386.00,4852.00 13912.00,4818.00 13856.00,4758.00
             13768.00,4684.00 13844.00,4692.00 13682.00,4560.00
             13598.00,4408.00 13512.00,4304.00 13522.00,4204.00
             13522.00,4204.00 13566.00,4066.00 13632.00,3942.00
             13590.00,3898.00 13752.00,3866.00 13702.00,3816.00
             13676.00,3686.00 13262.00,3630.00 13262.00,3630.00
             13262.00,3630.00 12514.00,5196.00 12514.00,5196.00
             12514.00,5196.00 13056.00,5300.00 13056.00,5300.00
             13056.00,5300.00 13622.00,5340.00 13622.00,5340.00
             13622.00,5340.00 14304.00,5392.00 14314.00,5306.00
             14372.00,5274.00 14386.00,4852.00 14386.00,4852.00 Z" />
</svg>
